<svg id="Calque_2" data-name="Calque 2" xmlns="http://www.w3.org/2000/svg" viewBox="0 0 170.7 53.46">
  <defs>
    <style>
      .cls-1 {
        fill: #fff;
      }
    </style>
  </defs>
  <title>logo</title>
  <g>
    <path class="cls-1" d="M23.28,11.22V0a3.7,3.7,0,0,0-1.44.47l-8,4.66V15.51a4.35,4.35,0,0,0,.12,1Z"/>
    <g>
      <path class="cls-1" d="M66.8,20.63v5.89h6.39V20.63h3.19V34.75H73.19V29.18H66.8v5.57H63.61V20.63Z"/>
      <path class="cls-1" d="M90.24,20.63v2.64H82.68v3.07h6.79V29H82.68v3.13h7.78v2.64h-11V20.63Z"/>
      <path class="cls-1" d="M99.76,30.19v4.56H96.58V30.27l-5.23-9.64h3.21L98.17,27l3.53-6.34h3.21Z"/>
      <path class="cls-1" d="M111.31,23.21c-1.07,0-1.8.39-1.8,1.15,0,2.61,7.52,1.15,7.5,6.24,0,2.76-2.4,4.25-5.52,4.25a9.9,9.9,0,0,1-6.24-2.24l1.27-2.6a8.39,8.39,0,0,0,5,2.12c1.31,0,2.1-.48,2.1-1.35,0-2.66-7.53-1.11-7.53-6.11,0-2.57,2.2-4.18,5.47-4.18A10.15,10.15,0,0,1,116.93,22l-1.23,2.65A9.8,9.8,0,0,0,111.31,23.21Z"/>
      <path class="cls-1" d="M134.16,36.47a6.32,6.32,0,0,1-4,1.55,5.16,5.16,0,0,1-4.54-3.13,7.22,7.22,0,0,1-7.38-7.2c0-4.11,3.27-7.16,7.58-7.16s7.59,3.07,7.59,7.16a7.08,7.08,0,0,1-4.8,6.74,2.59,2.59,0,0,0,1.91,1.07A4.57,4.57,0,0,0,133,34.39Zm-8.29-4.36a4.4,4.4,0,1,0-4.35-4.42A4.39,4.39,0,0,0,125.87,32.11Z"/>
      <path class="cls-1" d="M141.79,32.11a3,3,0,0,0,3.15-3.27V20.63h3.19v8.21c0,3.73-2.44,6.05-6.34,6.05s-6.41-2.32-6.41-6.05V20.63h3.18v8.21A3.05,3.05,0,0,0,141.79,32.11Z"/>
      <path class="cls-1" d="M154.16,20.63V34.75H151V20.63Z"/>
      <path class="cls-1" d="M170.7,27.69c0,4.16-3.08,7.06-7.54,7.06h-5.87V20.63h6C167.66,20.63,170.7,23.52,170.7,27.69Zm-3.24,0a4.17,4.17,0,0,0-4.24-4.4h-2.74v8.76h2.88A4.08,4.08,0,0,0,167.46,27.71Z"/>
    </g>
    <path class="cls-1" d="M45.32,12.16,36.48,7v8.56a7.21,7.21,0,0,1-7.2,7.2H18.05a7.21,7.21,0,0,1-7.2-7.2V6.88l-9,5.28A3.63,3.63,0,0,0,0,15.3v23a3.66,3.66,0,0,0,1.85,3.18l9,5.08V38a7.21,7.21,0,0,1,7.2-7.21H29.28A7.21,7.21,0,0,1,36.48,38v8.47l8.79-5a3.63,3.63,0,0,0,1.84-3.16v-23A3.64,3.64,0,0,0,45.32,12.16Z"/>
    <path class="cls-1" d="M24.06,42.24V53.46A3.59,3.59,0,0,0,25.5,53l8-4.66V38a3.85,3.85,0,0,0-.12-1Z"/>
    <path class="cls-1" d="M33.41,16.21a4.05,4.05,0,0,0,.07-.7V5.18l-8-4.7A3.78,3.78,0,0,0,24.28,0V11Z"/>
    <g>
      <path class="cls-1" d="M23.41,41.46,33,36.05a4.17,4.17,0,0,0-3.72-2.3H18.05a4.22,4.22,0,0,0-3.84,2.52Z"/>
      <path class="cls-1" d="M13.92,37.25a4.07,4.07,0,0,0-.07.71V48.29l8,4.7a3.76,3.76,0,0,0,1.24.44v-11Z"/>
    </g>
    <path class="cls-1" d="M23.93,12l-9.59,5.41a4.17,4.17,0,0,0,3.71,2.3H29.28a4.18,4.18,0,0,0,3.83-2.52Z"/>
  </g>
</svg>
